<svg width="14" height="13" viewBox="0 0 14 13" fill="none" xmlns="http://www.w3.org/2000/svg">
  <path d="M13.0488 11.875C12.917 9.37286 10.6682 8.33777 10.6682 8.33777C10.1309 8.08655 9.15682 7.59476 8.51815 7.26967C9.33642 6.37445 9.5781 4.91486 9.61573 4.70717C9.7865 3.76743 9.70055 2.60428 9.70055 2.60428C9.5444 0.342431 7.26077 0.306905 7.02163 0.309284C7.00843 0.309284 6.99985 0.309421 6.99985 0.309421C6.99985 0.309421 6.99255 0.309284 6.98173 0.309421C6.76491 0.306607 4.45614 0.329506 4.29915 2.60428C4.29915 2.60428 4.2132 3.76729 4.38397 4.70717C4.39507 4.7677 4.424 4.93634 4.47891 5.16439C4.90904 5.72905 5.5731 6.00597 6.11812 6.14148C6.18666 6.07491 6.28004 6.03349 6.38353 6.03349H7.37691C7.58714 6.03349 7.75734 6.20382 7.75734 6.41405C7.75734 6.62441 7.58714 6.79489 7.37691 6.79489H6.38353C6.22667 6.79489 6.09257 6.70025 6.03401 6.56528C5.62748 6.46641 5.15704 6.29425 4.73715 5.9981C4.90467 6.43299 5.1434 6.8995 5.48183 7.26981C4.84316 7.5949 3.86945 8.08652 3.33175 8.33777C3.33175 8.33777 1.08323 9.37286 0.951214 11.875C0.951214 11.875 0.912165 12.2911 1.70067 12.4486C1.70067 12.4486 4.1163 12.9999 7.00013 12.9999C9.88423 12.9999 12.2999 12.4486 12.2999 12.4486C13.0882 12.2911 13.0488 11.875 13.0488 11.875Z" fill="black" />
</svg>